<?xml version="1.0"?>
<svg width="1023" height="301" xmlns="http://www.w3.org/2000/svg" xmlns:svg="http://www.w3.org/2000/svg">
 <g class="layer">
  <title>Layer 1</title>
  <text fill="#39e079" font-family="Sans-serif" font-size="128" font-weight="normal" id="svg_5" letter-spacing="3" stroke-width="0" text-anchor="middle" x="826.6" xml:space="preserve" y="156.2">Collab</text>
  <path d="m387.18,93l-11.27,0c-0.67,-3.24 -1.83,-6.09 -3.5,-8.55c-1.64,-2.45 -3.64,-4.51 -6,-6.18c-2.33,-1.69 -4.92,-2.97 -7.77,-3.82c-2.85,-0.84 -5.82,-1.27 -8.91,-1.27c-5.64,0 -10.74,1.43 -15.32,4.27c-4.55,2.85 -8.19,7.06 -10.86,12.6c-2.67,5.54 -4,12.34 -4,20.4c0,8.07 1.33,14.87 4,20.41c2.69,5.55 6.31,9.75 10.86,12.6c4.58,2.84 9.68,4.27 15.32,4.27c3.09,0 6.06,-0.43 8.91,-1.27c2.85,-0.85 5.44,-2.11 7.77,-3.78c2.36,-1.69 4.36,-3.77 6,-6.22c1.67,-2.49 2.83,-5.34 3.5,-8.55l11.27,0c-0.85,4.76 -2.39,9.01 -4.63,12.77c-2.25,3.76 -5.04,6.96 -8.37,9.59c-3.33,2.61 -7.07,4.59 -11.23,5.96c-4.12,1.36 -8.53,2.04 -13.22,2.04c-7.94,0 -15,-1.94 -21.18,-5.81c-6.19,-3.88 -11.05,-9.4 -14.6,-16.55c-3.54,-7.15 -5.31,-15.64 -5.31,-25.46c0,-9.81 1.77,-18.3 5.31,-25.45c3.55,-7.15 8.41,-12.67 14.6,-16.55c6.18,-3.87 13.24,-5.81 21.18,-5.81c4.69,0 9.1,0.68 13.22,2.04c4.16,1.37 7.9,3.37 11.23,6c3.33,2.61 6.12,5.79 8.37,9.55c2.24,3.72 3.78,7.98 4.63,12.77zm45.13,65.46c-6.31,0 -11.84,-1.5 -16.59,-4.5c-4.73,-3 -8.43,-7.2 -11.09,-12.6c-2.64,-5.39 -3.96,-11.69 -3.96,-18.91c0,-7.27 1.32,-13.62 3.96,-19.04c2.66,-5.43 6.36,-9.64 11.09,-12.64c4.75,-3 10.28,-4.5 16.59,-4.5c6.3,0 11.82,1.5 16.54,4.5c4.76,3 8.46,7.21 11.09,12.64c2.67,5.42 4,11.77 4,19.04c0,7.22 -1.33,13.52 -4,18.91c-2.63,5.4 -6.33,9.6 -11.09,12.6c-4.72,3 -10.24,4.5 -16.54,4.5zm0,-9.64c4.79,0 8.72,-1.23 11.82,-3.68c3.09,-2.46 5.37,-5.68 6.86,-9.68c1.48,-4 2.23,-8.34 2.23,-13.01c0,-4.66 -0.75,-9.01 -2.23,-13.04c-1.49,-4.03 -3.77,-7.29 -6.86,-9.77c-3.1,-2.49 -7.03,-3.73 -11.82,-3.73c-4.79,0 -8.73,1.24 -11.82,3.73c-3.09,2.48 -5.38,5.74 -6.86,9.77c-1.49,4.03 -2.23,8.38 -2.23,13.04c0,4.67 0.74,9.01 2.23,13.01c1.48,4 3.77,7.22 6.86,9.68c3.09,2.45 7.03,3.68 11.82,3.68zm74.37,9.64c-5.82,0 -10.95,-1.47 -15.41,-4.42c-4.45,-2.96 -7.94,-7.15 -10.45,-12.54c-2.52,-5.42 -3.77,-11.83 -3.77,-19.23c0,-7.33 1.25,-13.69 3.77,-19.09c2.51,-5.39 6.01,-9.56 10.5,-12.5c4.48,-2.94 9.67,-4.41 15.54,-4.41c4.55,0 8.14,0.76 10.78,2.28c2.66,1.48 4.69,3.18 6.09,5.09c1.42,1.88 2.53,3.42 3.31,4.63l0.92,0l0,-34.36l10.72,0l0,93.09l-10.36,0l0,-10.73l-1.28,0c-0.78,1.27 -1.9,2.88 -3.36,4.82c-1.45,1.91 -3.53,3.62 -6.22,5.14c-2.7,1.48 -6.29,2.23 -10.78,2.23zm1.46,-9.64c4.3,0 7.94,-1.12 10.9,-3.36c2.97,-2.28 5.23,-5.42 6.78,-9.42c1.54,-4.03 2.32,-8.68 2.32,-13.95c0,-5.21 -0.76,-9.77 -2.28,-13.68c-1.51,-3.94 -3.75,-7 -6.72,-9.18c-2.97,-2.21 -6.64,-3.32 -11,-3.32c-4.55,0 -8.34,1.17 -11.37,3.5c-3,2.3 -5.26,5.44 -6.77,9.41c-1.49,3.94 -2.23,8.36 -2.23,13.27c0,4.97 0.76,9.49 2.28,13.55c1.54,4.03 3.81,7.24 6.81,9.63c3.03,2.37 6.79,3.55 11.28,3.55zm80.95,9.64c-6.73,0 -12.53,-1.49 -17.41,-4.46c-4.85,-3 -8.59,-7.18 -11.22,-12.54c-2.61,-5.4 -3.92,-11.67 -3.92,-18.82c0,-7.16 1.31,-13.46 3.92,-18.91c2.63,-5.49 6.3,-9.76 11,-12.82c4.72,-3.09 10.24,-4.64 16.54,-4.64c3.64,0 7.23,0.61 10.77,1.82c3.55,1.21 6.77,3.18 9.69,5.91c2.9,2.7 5.22,6.27 6.95,10.73c1.73,4.45 2.59,9.94 2.59,16.45l0,4.55l-53.82,0l0,-9.28l42.91,0c0,-3.93 -0.79,-7.45 -2.36,-10.54c-1.55,-3.09 -3.76,-5.53 -6.64,-7.32c-2.85,-1.79 -6.21,-2.68 -10.09,-2.68c-4.27,0 -7.97,1.06 -11.09,3.18c-3.09,2.09 -5.47,4.82 -7.14,8.18c-1.66,3.37 -2.5,6.97 -2.5,10.82l0,6.18c0,5.27 0.91,9.74 2.73,13.41c1.85,3.64 4.41,6.41 7.68,8.32c3.28,1.88 7.08,2.82 11.41,2.82c2.82,0 5.37,-0.4 7.64,-1.18c2.3,-0.82 4.28,-2.03 5.95,-3.64c1.67,-1.64 2.96,-3.67 3.86,-6.09l10.37,2.91c-1.09,3.51 -2.92,6.6 -5.5,9.27c-2.58,2.64 -5.76,4.7 -9.55,6.18c-3.78,1.46 -8.04,2.19 -12.77,2.19z" fill="white" id="svg_1" transform="matrix(1 0 0 1 0 0)"/>
  <path d="m343.2,202l-2.64,0c-0.16,-0.76 -0.43,-1.43 -0.82,-2c-0.39,-0.58 -0.86,-1.06 -1.41,-1.45c-0.55,-0.4 -1.15,-0.7 -1.82,-0.9c-0.67,-0.19 -1.37,-0.3 -2.09,-0.3c-1.32,0 -2.52,0.34 -3.59,1.01c-1.07,0.66 -1.91,1.65 -2.55,2.95c-0.62,1.3 -0.93,2.89 -0.93,4.78c0,1.89 0.31,3.48 0.93,4.78c0.64,1.3 1.48,2.29 2.55,2.95c1.07,0.67 2.27,1.01 3.59,1.01c0.72,0 1.42,-0.1 2.09,-0.3c0.67,-0.2 1.27,-0.5 1.82,-0.89c0.55,-0.39 1.02,-0.88 1.41,-1.45c0.39,-0.59 0.66,-1.25 0.82,-2.01l2.64,0c-0.2,1.12 -0.56,2.11 -1.09,3c-0.52,0.88 -1.18,1.63 -1.96,2.24c-0.78,0.61 -1.66,1.08 -2.63,1.4c-0.96,0.32 -2,0.48 -3.1,0.48c-1.86,0 -3.52,-0.46 -4.96,-1.36c-1.45,-0.91 -2.59,-2.21 -3.42,-3.88c-0.84,-1.68 -1.25,-3.67 -1.25,-5.97c0,-2.3 0.41,-4.29 1.25,-5.96c0.83,-1.68 1.97,-2.97 3.42,-3.88c1.44,-0.91 3.1,-1.37 4.96,-1.37c1.1,0 2.14,0.16 3.1,0.48c0.97,0.32 1.85,0.79 2.63,1.41c0.78,0.61 1.44,1.36 1.96,2.24c0.53,0.87 0.89,1.87 1.09,2.99zm10.57,15.34c-1.47,0 -2.77,-0.35 -3.88,-1.05c-1.11,-0.71 -1.98,-1.69 -2.6,-2.95c-0.62,-1.27 -0.93,-2.75 -0.93,-4.44c0,-1.7 0.31,-3.19 0.93,-4.46c0.62,-1.27 1.49,-2.26 2.6,-2.96c1.11,-0.7 2.41,-1.06 3.88,-1.06c1.48,0 2.78,0.36 3.88,1.06c1.12,0.7 1.98,1.69 2.6,2.96c0.63,1.27 0.94,2.76 0.94,4.46c0,1.69 -0.31,3.17 -0.94,4.44c-0.62,1.26 -1.48,2.24 -2.6,2.95c-1.1,0.7 -2.4,1.05 -3.88,1.05zm0,-2.26c1.13,0 2.05,-0.29 2.78,-0.86c0.72,-0.58 1.26,-1.33 1.6,-2.27c0.35,-0.94 0.53,-1.95 0.53,-3.05c0,-1.09 -0.18,-2.11 -0.53,-3.05c-0.34,-0.95 -0.88,-1.71 -1.6,-2.29c-0.73,-0.59 -1.65,-0.88 -2.78,-0.88c-1.12,0 -2.04,0.29 -2.77,0.88c-0.72,0.58 -1.26,1.34 -1.6,2.29c-0.35,0.94 -0.53,1.96 -0.53,3.05c0,1.1 0.18,2.11 0.53,3.05c0.34,0.94 0.88,1.69 1.6,2.27c0.73,0.57 1.65,0.86 2.77,0.86zm17.44,2.26c-1.37,0 -2.57,-0.34 -3.61,-1.03c-1.05,-0.7 -1.87,-1.68 -2.46,-2.94c-0.58,-1.27 -0.88,-2.78 -0.88,-4.51c0,-1.72 0.3,-3.21 0.88,-4.47c0.59,-1.27 1.42,-2.24 2.47,-2.93c1.05,-0.69 2.26,-1.04 3.64,-1.04c1.06,0 1.91,0.18 2.52,0.54c0.63,0.34 1.11,0.74 1.43,1.19c0.34,0.44 0.6,0.8 0.78,1.09l0.21,0l0,-8.06l2.52,0l0,21.82l-2.43,0l0,-2.51l-0.3,0c-0.18,0.29 -0.45,0.67 -0.79,1.13c-0.34,0.44 -0.83,0.84 -1.46,1.2c-0.63,0.35 -1.47,0.52 -2.52,0.52zm0.34,-2.26c1.01,0 1.86,-0.26 2.55,-0.79c0.7,-0.53 1.23,-1.26 1.59,-2.2c0.36,-0.95 0.55,-2.04 0.55,-3.27c0,-1.22 -0.18,-2.29 -0.54,-3.21c-0.35,-0.92 -0.88,-1.64 -1.57,-2.15c-0.7,-0.52 -1.56,-0.78 -2.58,-0.78c-1.07,0 -1.96,0.28 -2.67,0.82c-0.7,0.54 -1.23,1.28 -1.58,2.21c-0.35,0.92 -0.53,1.96 -0.53,3.11c0,1.16 0.18,2.22 0.54,3.17c0.36,0.95 0.89,1.7 1.6,2.26c0.71,0.56 1.59,0.83 2.64,0.83zm18.97,2.26c-1.58,0 -2.94,-0.35 -4.08,-1.04c-1.13,-0.71 -2.01,-1.69 -2.63,-2.94c-0.61,-1.27 -0.92,-2.74 -0.92,-4.41c0,-1.68 0.31,-3.16 0.92,-4.44c0.62,-1.28 1.48,-2.28 2.58,-3c1.11,-0.72 2.4,-1.09 3.88,-1.09c0.85,0 1.69,0.14 2.52,0.43c0.83,0.28 1.59,0.74 2.27,1.38c0.68,0.64 1.23,1.48 1.63,2.52c0.4,1.04 0.61,2.33 0.61,3.85l0,1.07l-12.62,0l0,-2.17l10.06,0c0,-0.93 -0.18,-1.75 -0.55,-2.47c-0.37,-0.73 -0.88,-1.3 -1.56,-1.72c-0.67,-0.42 -1.45,-0.63 -2.36,-0.63c-1.01,0 -1.87,0.25 -2.6,0.75c-0.73,0.49 -1.29,1.13 -1.68,1.91c-0.39,0.79 -0.58,1.64 -0.58,2.54l0,1.45c0,1.23 0.21,2.28 0.64,3.14c0.43,0.85 1.03,1.5 1.8,1.95c0.76,0.44 1.66,0.66 2.67,0.66c0.66,0 1.26,-0.09 1.79,-0.27c0.54,-0.2 1.01,-0.48 1.4,-0.86c0.39,-0.38 0.69,-0.86 0.9,-1.42l2.43,0.68c-0.25,0.82 -0.68,1.55 -1.29,2.17c-0.6,0.62 -1.35,1.1 -2.24,1.45c-0.88,0.34 -1.88,0.51 -2.99,0.51zm14.35,-3.32l-0.17,1.15c-0.12,0.81 -0.3,1.67 -0.55,2.6c-0.24,0.92 -0.5,1.79 -0.76,2.61c-0.26,0.81 -0.48,1.46 -0.65,1.95l-1.92,0c0.1,-0.46 0.22,-1.06 0.37,-1.8c0.14,-0.75 0.29,-1.58 0.44,-2.51c0.16,-0.91 0.29,-1.85 0.39,-2.81l0.12,-1.19l2.73,0zm31,-12.02l-2.65,0c-0.15,-0.76 -0.43,-1.43 -0.82,-2c-0.38,-0.58 -0.85,-1.06 -1.4,-1.45c-0.55,-0.4 -1.16,-0.7 -1.82,-0.9c-0.67,-0.19 -1.37,-0.3 -2.09,-0.3c-1.33,0 -2.52,0.34 -3.59,1.01c-1.07,0.66 -1.92,1.65 -2.55,2.95c-0.63,1.3 -0.94,2.89 -0.94,4.78c0,1.89 0.31,3.48 0.94,4.78c0.63,1.3 1.48,2.29 2.55,2.95c1.07,0.67 2.26,1.01 3.59,1.01c0.72,0 1.42,-0.1 2.09,-0.3c0.66,-0.2 1.27,-0.5 1.82,-0.89c0.55,-0.39 1.02,-0.88 1.4,-1.45c0.39,-0.59 0.67,-1.25 0.82,-2.01l2.65,0c-0.2,1.12 -0.57,2.11 -1.09,3c-0.53,0.88 -1.18,1.63 -1.96,2.24c-0.78,0.61 -1.66,1.08 -2.63,1.4c-0.97,0.32 -2,0.48 -3.1,0.48c-1.86,0 -3.52,-0.46 -4.97,-1.36c-1.45,-0.91 -2.59,-2.21 -3.42,-3.88c-0.83,-1.68 -1.24,-3.67 -1.24,-5.97c0,-2.3 0.41,-4.29 1.24,-5.96c0.83,-1.68 1.97,-2.97 3.42,-3.88c1.45,-0.91 3.11,-1.37 4.97,-1.37c1.1,0 2.13,0.16 3.1,0.48c0.97,0.32 1.85,0.79 2.63,1.41c0.78,0.61 1.43,1.36 1.96,2.24c0.52,0.87 0.89,1.87 1.09,2.99zm6.44,5.16l0,9.84l-2.52,0l0,-21.82l2.52,0l0,8.01l0.21,0c0.38,-0.84 0.96,-1.51 1.73,-2.01c0.77,-0.5 1.8,-0.76 3.09,-0.76c1.11,0 2.09,0.23 2.93,0.67c0.83,0.44 1.48,1.12 1.94,2.04c0.47,0.91 0.71,2.07 0.71,3.47l0,10.4l-2.52,0l0,-10.23c0,-1.3 -0.33,-2.3 -1.01,-3.01c-0.67,-0.72 -1.59,-1.08 -2.78,-1.08c-0.82,0 -1.56,0.18 -2.21,0.52c-0.65,0.35 -1.16,0.86 -1.54,1.53c-0.37,0.67 -0.55,1.48 -0.55,2.43zm20.02,10.22c-1.03,0 -1.97,-0.19 -2.82,-0.58c-0.84,-0.4 -1.52,-0.97 -2.01,-1.72c-0.5,-0.75 -0.75,-1.66 -0.75,-2.73c0,-0.93 0.19,-1.69 0.56,-2.28c0.36,-0.58 0.86,-1.05 1.48,-1.38c0.61,-0.33 1.29,-0.58 2.04,-0.75c0.75,-0.17 1.51,-0.3 2.27,-0.4c1,-0.13 1.8,-0.22 2.42,-0.29c0.62,-0.07 1.08,-0.19 1.36,-0.35c0.29,-0.16 0.44,-0.45 0.44,-0.85l0,-0.09c0,-1.05 -0.29,-1.87 -0.86,-2.45c-0.57,-0.58 -1.44,-0.87 -2.59,-0.87c-1.2,0 -2.14,0.26 -2.83,0.79c-0.68,0.52 -1.16,1.08 -1.43,1.68l-2.39,-0.85c0.43,-1 0.99,-1.77 1.7,-2.32c0.72,-0.56 1.5,-0.96 2.35,-1.18c0.85,-0.22 1.69,-0.34 2.51,-0.34c0.53,0 1.13,0.07 1.81,0.2c0.69,0.12 1.36,0.37 1.99,0.75c0.65,0.38 1.19,0.96 1.61,1.74c0.43,0.77 0.64,1.81 0.64,3.11l0,10.78l-2.51,0l0,-2.22l-0.13,0c-0.17,0.36 -0.45,0.74 -0.85,1.14c-0.4,0.41 -0.93,0.75 -1.59,1.04c-0.66,0.28 -1.46,0.42 -2.42,0.42zm0.39,-2.25c0.99,0 1.83,-0.2 2.51,-0.59c0.69,-0.39 1.21,-0.9 1.56,-1.51c0.35,-0.62 0.53,-1.27 0.53,-1.95l0,-2.3c-0.11,0.12 -0.34,0.24 -0.7,0.35c-0.36,0.1 -0.77,0.18 -1.24,0.26c-0.46,0.07 -0.91,0.14 -1.35,0.2c-0.44,0.04 -0.79,0.09 -1.06,0.12c-0.65,0.09 -1.26,0.23 -1.83,0.42c-0.56,0.18 -1.02,0.46 -1.36,0.84c-0.34,0.37 -0.52,0.87 -0.52,1.51c0,0.88 0.33,1.54 0.98,1.98c0.65,0.45 1.47,0.67 2.48,0.67zm18.82,-14.49l0,2.13l-8.48,0l0,-2.13l8.48,0zm-6.01,-3.92l2.51,0l0,15.59c0,0.71 0.11,1.25 0.31,1.6c0.22,0.35 0.49,0.58 0.81,0.7c0.34,0.12 0.69,0.17 1.06,0.17c0.28,0 0.5,-0.01 0.68,-0.04c0.18,-0.03 0.32,-0.06 0.43,-0.08l0.51,2.25c-0.17,0.07 -0.41,0.13 -0.72,0.2c-0.3,0.07 -0.69,0.1 -1.16,0.1c-0.71,0 -1.4,-0.15 -2.09,-0.46c-0.67,-0.3 -1.23,-0.77 -1.68,-1.39c-0.44,-0.63 -0.66,-1.41 -0.66,-2.37l0,-16.27zm23.04,20.66c-1.03,0 -1.97,-0.19 -2.82,-0.58c-0.85,-0.4 -1.52,-0.97 -2.01,-1.72c-0.5,-0.75 -0.75,-1.66 -0.75,-2.73c0,-0.93 0.19,-1.69 0.56,-2.28c0.36,-0.58 0.86,-1.05 1.48,-1.38c0.61,-0.33 1.3,-0.58 2.04,-0.75c0.75,-0.17 1.51,-0.3 2.27,-0.4c0.99,-0.13 1.8,-0.22 2.42,-0.29c0.62,-0.07 1.08,-0.19 1.36,-0.35c0.29,-0.16 0.44,-0.45 0.44,-0.85l0,-0.09c0,-1.05 -0.29,-1.87 -0.86,-2.45c-0.57,-0.58 -1.44,-0.87 -2.59,-0.87c-1.2,0 -2.14,0.26 -2.83,0.79c-0.68,0.52 -1.16,1.08 -1.43,1.68l-2.39,-0.85c0.43,-1 0.99,-1.77 1.7,-2.32c0.72,-0.56 1.5,-0.96 2.35,-1.18c0.85,-0.22 1.69,-0.34 2.51,-0.34c0.53,0 1.13,0.07 1.81,0.2c0.69,0.12 1.36,0.37 2,0.75c0.64,0.38 1.18,0.96 1.6,1.74c0.43,0.77 0.64,1.81 0.64,3.11l0,10.78l-2.51,0l0,-2.22l-0.13,0c-0.17,0.36 -0.45,0.74 -0.85,1.14c-0.4,0.41 -0.93,0.75 -1.59,1.04c-0.66,0.28 -1.47,0.42 -2.42,0.42zm0.39,-2.25c0.99,0 1.83,-0.2 2.51,-0.59c0.69,-0.39 1.21,-0.9 1.56,-1.51c0.35,-0.62 0.53,-1.27 0.53,-1.95l0,-2.3c-0.11,0.12 -0.34,0.24 -0.7,0.35c-0.36,0.1 -0.77,0.18 -1.24,0.26c-0.46,0.07 -0.91,0.14 -1.35,0.2c-0.44,0.04 -0.79,0.09 -1.06,0.12c-0.65,0.09 -1.26,0.23 -1.83,0.42c-0.56,0.18 -1.01,0.46 -1.36,0.84c-0.34,0.37 -0.52,0.87 -0.52,1.51c0,0.88 0.33,1.54 0.98,1.98c0.65,0.45 1.48,0.67 2.48,0.67zm14.22,-7.97l0,9.84l-2.52,0l0,-16.36l2.43,0l0,2.55l0.21,0c0.39,-0.83 0.97,-1.5 1.75,-2c0.78,-0.51 1.79,-0.77 3.03,-0.77c1.1,0 2.07,0.23 2.91,0.68c0.83,0.45 1.47,1.13 1.93,2.05c0.47,0.91 0.7,2.06 0.7,3.45l0,10.4l-2.52,0l0,-10.23c0,-1.28 -0.33,-2.28 -1,-3c-0.67,-0.73 -1.58,-1.09 -2.75,-1.09c-0.8,0 -1.52,0.18 -2.15,0.52c-0.62,0.35 -1.12,0.86 -1.48,1.53c-0.36,0.67 -0.54,1.48 -0.54,2.43zm21.21,10.18c-1.36,0 -2.57,-0.34 -3.61,-1.03c-1.04,-0.7 -1.86,-1.68 -2.45,-2.94c-0.59,-1.27 -0.89,-2.78 -0.89,-4.51c0,-1.72 0.3,-3.21 0.89,-4.47c0.59,-1.27 1.41,-2.24 2.46,-2.93c1.05,-0.69 2.26,-1.04 3.64,-1.04c1.07,0 1.91,0.18 2.53,0.54c0.62,0.34 1.1,0.74 1.42,1.19c0.34,0.44 0.6,0.8 0.78,1.09l0.22,0l0,-8.06l2.51,0l0,21.82l-2.43,0l0,-2.51l-0.3,0c-0.18,0.29 -0.44,0.67 -0.78,1.13c-0.35,0.44 -0.83,0.84 -1.47,1.2c-0.63,0.35 -1.47,0.52 -2.52,0.52zm0.34,-2.26c1.01,0 1.86,-0.26 2.56,-0.79c0.69,-0.53 1.22,-1.26 1.59,-2.2c0.36,-0.95 0.54,-2.04 0.54,-3.27c0,-1.22 -0.18,-2.29 -0.53,-3.21c-0.36,-0.92 -0.89,-1.64 -1.58,-2.15c-0.7,-0.52 -1.56,-0.78 -2.58,-0.78c-1.06,0 -1.95,0.28 -2.66,0.82c-0.7,0.54 -1.23,1.28 -1.59,2.21c-0.35,0.92 -0.52,1.96 -0.52,3.11c0,1.16 0.18,2.22 0.53,3.17c0.36,0.95 0.9,1.7 1.6,2.26c0.71,0.56 1.59,0.83 2.64,0.83zm38.45,-13.08l-2.64,0c-0.16,-0.76 -0.43,-1.43 -0.82,-2c-0.39,-0.58 -0.85,-1.06 -1.41,-1.45c-0.55,-0.4 -1.15,-0.7 -1.82,-0.9c-0.67,-0.19 -1.36,-0.3 -2.09,-0.3c-1.32,0 -2.52,0.34 -3.59,1.01c-1.06,0.66 -1.91,1.65 -2.55,2.95c-0.62,1.3 -0.93,2.89 -0.93,4.78c0,1.89 0.31,3.48 0.93,4.78c0.64,1.3 1.49,2.29 2.55,2.95c1.07,0.67 2.27,1.01 3.59,1.01c0.73,0 1.42,-0.1 2.09,-0.3c0.67,-0.2 1.27,-0.5 1.82,-0.89c0.56,-0.39 1.02,-0.88 1.41,-1.45c0.39,-0.59 0.66,-1.25 0.82,-2.01l2.64,0c-0.2,1.12 -0.56,2.11 -1.09,3c-0.52,0.88 -1.18,1.63 -1.96,2.24c-0.78,0.61 -1.66,1.08 -2.63,1.4c-0.97,0.32 -2,0.48 -3.1,0.48c-1.86,0 -3.52,-0.46 -4.96,-1.36c-1.45,-0.91 -2.59,-2.21 -3.42,-3.88c-0.83,-1.68 -1.25,-3.67 -1.25,-5.97c0,-2.3 0.42,-4.29 1.25,-5.96c0.83,-1.68 1.97,-2.97 3.42,-3.88c1.44,-0.91 3.1,-1.37 4.96,-1.37c1.1,0 2.13,0.16 3.1,0.48c0.97,0.32 1.85,0.79 2.63,1.41c0.78,0.61 1.44,1.36 1.96,2.24c0.53,0.87 0.89,1.87 1.09,2.99zm10.58,15.34c-1.48,0 -2.78,-0.35 -3.89,-1.05c-1.11,-0.71 -1.98,-1.69 -2.6,-2.95c-0.62,-1.27 -0.93,-2.75 -0.93,-4.44c0,-1.7 0.31,-3.19 0.93,-4.46c0.62,-1.27 1.49,-2.26 2.6,-2.96c1.11,-0.7 2.41,-1.06 3.89,-1.06c1.47,0 2.76,0.36 3.87,1.06c1.12,0.7 1.99,1.69 2.6,2.96c0.63,1.27 0.94,2.76 0.94,4.46c0,1.69 -0.31,3.17 -0.94,4.44c-0.61,1.26 -1.48,2.24 -2.6,2.95c-1.11,0.7 -2.4,1.05 -3.87,1.05zm0,-2.26c1.12,0 2.04,-0.29 2.76,-0.86c0.73,-0.58 1.27,-1.33 1.61,-2.27c0.35,-0.94 0.53,-1.95 0.53,-3.05c0,-1.09 -0.18,-2.11 -0.53,-3.05c-0.34,-0.95 -0.88,-1.71 -1.61,-2.29c-0.72,-0.59 -1.64,-0.88 -2.76,-0.88c-1.13,0 -2.05,0.29 -2.77,0.88c-0.73,0.58 -1.26,1.34 -1.61,2.29c-0.35,0.94 -0.52,1.96 -0.52,3.05c0,1.1 0.17,2.11 0.52,3.05c0.35,0.94 0.88,1.69 1.61,2.27c0.72,0.57 1.64,0.86 2.77,0.86zm13.76,-19.9l0,21.82l-2.51,0l0,-21.82l2.51,0zm7.12,0l0,21.82l-2.51,0l0,-21.82l2.51,0zm9.42,22.2c-1.04,0 -1.98,-0.19 -2.82,-0.58c-0.85,-0.4 -1.52,-0.97 -2.01,-1.72c-0.5,-0.75 -0.75,-1.66 -0.75,-2.73c0,-0.93 0.18,-1.69 0.55,-2.28c0.37,-0.58 0.87,-1.05 1.48,-1.38c0.62,-0.33 1.3,-0.58 2.05,-0.75c0.75,-0.17 1.51,-0.3 2.27,-0.4c0.99,-0.13 1.8,-0.22 2.42,-0.29c0.62,-0.07 1.08,-0.19 1.36,-0.35c0.29,-0.16 0.44,-0.45 0.44,-0.85l0,-0.09c0,-1.05 -0.29,-1.87 -0.87,-2.45c-0.56,-0.58 -1.43,-0.87 -2.58,-0.87c-1.2,0 -2.14,0.26 -2.83,0.79c-0.68,0.52 -1.16,1.08 -1.43,1.68l-2.39,-0.85c0.42,-1 0.99,-1.77 1.7,-2.32c0.72,-0.56 1.5,-0.96 2.35,-1.18c0.85,-0.22 1.69,-0.34 2.51,-0.34c0.53,0 1.13,0.07 1.81,0.2c0.69,0.12 1.35,0.37 1.99,0.75c0.65,0.38 1.19,0.96 1.61,1.74c0.43,0.77 0.64,1.81 0.64,3.11l0,10.78l-2.51,0l0,-2.22l-0.13,0c-0.17,0.36 -0.45,0.74 -0.85,1.14c-0.4,0.41 -0.93,0.75 -1.59,1.04c-0.66,0.28 -1.47,0.42 -2.42,0.42zm0.39,-2.25c0.99,0 1.83,-0.2 2.51,-0.59c0.69,-0.39 1.21,-0.9 1.55,-1.51c0.36,-0.62 0.54,-1.27 0.54,-1.95l0,-2.3c-0.11,0.12 -0.34,0.24 -0.71,0.35c-0.35,0.1 -0.76,0.18 -1.23,0.26c-0.46,0.07 -0.91,0.14 -1.35,0.2c-0.44,0.04 -0.79,0.09 -1.06,0.12c-0.65,0.09 -1.26,0.23 -1.83,0.42c-0.56,0.18 -1.02,0.46 -1.37,0.84c-0.34,0.37 -0.51,0.87 -0.51,1.51c0,0.88 0.33,1.54 0.97,1.98c0.66,0.45 1.48,0.67 2.49,0.67zm12.04,1.87l0,-21.82l2.52,0l0,8.06l0.21,0c0.18,-0.29 0.44,-0.65 0.77,-1.09c0.33,-0.45 0.81,-0.85 1.42,-1.19c0.63,-0.36 1.47,-0.54 2.54,-0.54c1.38,0 2.59,0.35 3.64,1.04c1.05,0.69 1.87,1.66 2.46,2.93c0.59,1.26 0.89,2.75 0.89,4.47c0,1.73 -0.3,3.24 -0.89,4.51c-0.59,1.26 -1.4,2.24 -2.45,2.94c-1.04,0.69 -2.24,1.03 -3.61,1.03c-1.05,0 -1.89,-0.17 -2.52,-0.52c-0.63,-0.36 -1.12,-0.76 -1.46,-1.2c-0.34,-0.46 -0.61,-0.84 -0.79,-1.13l-0.3,0l0,2.51l-2.43,0zm2.47,-8.18c0,1.23 0.18,2.32 0.55,3.27c0.36,0.94 0.89,1.67 1.58,2.2c0.7,0.53 1.55,0.79 2.56,0.79c1.05,0 1.93,-0.27 2.63,-0.83c0.71,-0.56 1.24,-1.31 1.6,-2.26c0.36,-0.95 0.54,-2.01 0.54,-3.17c0,-1.15 -0.17,-2.19 -0.53,-3.11c-0.35,-0.93 -0.88,-1.67 -1.59,-2.21c-0.7,-0.54 -1.58,-0.82 -2.65,-0.82c-1.02,0 -1.88,0.26 -2.58,0.78c-0.69,0.51 -1.22,1.23 -1.57,2.15c-0.36,0.92 -0.54,1.99 -0.54,3.21zm22.47,8.52c-1.48,0 -2.77,-0.35 -3.89,-1.05c-1.11,-0.71 -1.97,-1.69 -2.6,-2.95c-0.61,-1.27 -0.92,-2.75 -0.92,-4.44c0,-1.7 0.31,-3.19 0.92,-4.46c0.63,-1.27 1.49,-2.26 2.6,-2.96c1.12,-0.7 2.41,-1.06 3.89,-1.06c1.48,0 2.77,0.36 3.88,1.06c1.11,0.7 1.98,1.69 2.6,2.96c0.62,1.27 0.94,2.76 0.94,4.46c0,1.69 -0.32,3.17 -0.94,4.44c-0.62,1.26 -1.49,2.24 -2.6,2.95c-1.11,0.7 -2.4,1.05 -3.88,1.05zm0,-2.26c1.12,0 2.05,-0.29 2.77,-0.86c0.73,-0.58 1.26,-1.33 1.61,-2.27c0.35,-0.94 0.52,-1.95 0.52,-3.05c0,-1.09 -0.17,-2.11 -0.52,-3.05c-0.35,-0.95 -0.88,-1.71 -1.61,-2.29c-0.72,-0.59 -1.65,-0.88 -2.77,-0.88c-1.12,0 -2.04,0.29 -2.77,0.88c-0.72,0.58 -1.26,1.34 -1.61,2.29c-0.34,0.94 -0.52,1.96 -0.52,3.05c0,1.1 0.18,2.11 0.52,3.05c0.35,0.94 0.89,1.69 1.61,2.27c0.73,0.57 1.65,0.86 2.77,0.86zm11.25,1.92l0,-16.36l2.43,0l0,2.47l0.17,0c0.3,-0.81 0.84,-1.47 1.62,-1.97c0.78,-0.51 1.67,-0.76 2.64,-0.76c0.19,0 0.42,0 0.7,0.01c0.27,0.01 0.48,0.02 0.63,0.03l0,2.56c-0.09,-0.02 -0.28,-0.05 -0.59,-0.1c-0.3,-0.04 -0.62,-0.07 -0.95,-0.07c-0.79,0 -1.5,0.17 -2.13,0.5c-0.62,0.33 -1.11,0.78 -1.47,1.36c-0.35,0.58 -0.53,1.24 -0.53,1.98l0,10.35l-2.52,0zm15.98,0.38c-1.04,0 -1.98,-0.19 -2.82,-0.58c-0.85,-0.4 -1.52,-0.97 -2.01,-1.72c-0.5,-0.75 -0.75,-1.66 -0.75,-2.73c0,-0.93 0.18,-1.69 0.55,-2.28c0.37,-0.58 0.87,-1.05 1.48,-1.38c0.62,-0.33 1.3,-0.58 2.05,-0.75c0.75,-0.17 1.51,-0.3 2.27,-0.4c0.99,-0.13 1.8,-0.22 2.42,-0.29c0.62,-0.07 1.08,-0.19 1.36,-0.35c0.29,-0.16 0.44,-0.45 0.44,-0.85l0,-0.09c0,-1.05 -0.29,-1.87 -0.87,-2.45c-0.56,-0.58 -1.43,-0.87 -2.58,-0.87c-1.2,0 -2.15,0.26 -2.83,0.79c-0.68,0.52 -1.16,1.08 -1.44,1.68l-2.38,-0.85c0.42,-1 0.99,-1.77 1.7,-2.32c0.72,-0.56 1.5,-0.96 2.35,-1.18c0.85,-0.22 1.69,-0.34 2.51,-0.34c0.53,0 1.13,0.07 1.81,0.2c0.69,0.12 1.35,0.37 1.99,0.75c0.65,0.38 1.19,0.96 1.61,1.74c0.43,0.77 0.64,1.81 0.64,3.11l0,10.78l-2.51,0l0,-2.22l-0.13,0c-0.17,0.36 -0.45,0.74 -0.85,1.14c-0.4,0.41 -0.93,0.75 -1.59,1.04c-0.66,0.28 -1.47,0.42 -2.42,0.42zm0.38,-2.25c1,0 1.84,-0.2 2.52,-0.59c0.69,-0.39 1.21,-0.9 1.56,-1.51c0.35,-0.62 0.53,-1.27 0.53,-1.95l0,-2.3c-0.11,0.12 -0.34,0.24 -0.71,0.35c-0.35,0.1 -0.76,0.18 -1.23,0.26c-0.46,0.07 -0.91,0.14 -1.35,0.2c-0.44,0.04 -0.79,0.09 -1.06,0.12c-0.65,0.09 -1.26,0.23 -1.83,0.42c-0.56,0.18 -1.02,0.46 -1.36,0.84c-0.35,0.37 -0.52,0.87 -0.52,1.51c0,0.88 0.33,1.54 0.97,1.98c0.66,0.45 1.48,0.67 2.48,0.67zm18.83,-14.49l0,2.13l-8.48,0l0,-2.13l8.48,0zm-6.01,-3.92l2.51,0l0,15.59c0,0.71 0.11,1.25 0.31,1.6c0.21,0.35 0.48,0.58 0.81,0.7c0.34,0.12 0.69,0.17 1.06,0.17c0.27,0 0.5,-0.01 0.68,-0.04c0.17,-0.03 0.32,-0.06 0.42,-0.08l0.51,2.25c-0.16,0.07 -0.4,0.13 -0.71,0.2c-0.3,0.07 -0.69,0.1 -1.16,0.1c-0.71,0 -1.41,-0.15 -2.09,-0.46c-0.67,-0.3 -1.23,-0.77 -1.68,-1.39c-0.44,-0.63 -0.66,-1.41 -0.66,-2.37l0,-16.27zm16.47,20.62c-1.57,0 -2.93,-0.35 -4.08,-1.04c-1.13,-0.71 -2.01,-1.69 -2.63,-2.94c-0.61,-1.27 -0.91,-2.74 -0.91,-4.41c0,-1.68 0.3,-3.16 0.91,-4.44c0.62,-1.28 1.48,-2.28 2.58,-3c1.11,-0.72 2.4,-1.09 3.88,-1.09c0.85,0 1.69,0.14 2.52,0.43c0.83,0.28 1.59,0.74 2.27,1.38c0.68,0.64 1.23,1.48 1.63,2.52c0.41,1.04 0.61,2.33 0.61,3.85l0,1.07l-12.61,0l0,-2.17l10.05,0c0,-0.93 -0.18,-1.75 -0.55,-2.47c-0.36,-0.73 -0.88,-1.3 -1.56,-1.72c-0.66,-0.42 -1.45,-0.63 -2.36,-0.63c-1,0 -1.87,0.25 -2.6,0.75c-0.73,0.49 -1.28,1.13 -1.67,1.91c-0.4,0.79 -0.59,1.64 -0.59,2.54l0,1.45c0,1.23 0.21,2.28 0.64,3.14c0.43,0.85 1.03,1.5 1.8,1.95c0.77,0.44 1.66,0.66 2.67,0.66c0.66,0 1.26,-0.09 1.79,-0.27c0.54,-0.2 1.01,-0.48 1.4,-0.86c0.39,-0.38 0.69,-0.86 0.9,-1.42l2.43,0.68c-0.25,0.82 -0.68,1.55 -1.28,2.17c-0.61,0.62 -1.35,1.1 -2.24,1.45c-0.89,0.34 -1.89,0.51 -3,0.51zm12.44,-0.17c-0.53,0 -0.98,-0.19 -1.36,-0.56c-0.37,-0.38 -0.56,-0.83 -0.56,-1.36c0,-0.52 0.19,-0.97 0.56,-1.35c0.38,-0.38 0.83,-0.56 1.36,-0.56c0.52,0 0.97,0.18 1.35,0.56c0.38,0.38 0.56,0.83 0.56,1.35c0,0.35 -0.08,0.67 -0.26,0.96c-0.17,0.29 -0.4,0.53 -0.69,0.7c-0.29,0.18 -0.61,0.26 -0.96,0.26zm17.85,-21.99l0,21.82l-2.65,0l0,-21.82l2.65,0zm12.07,5.46l0,2.13l-8.48,0l0,-2.13l8.48,0zm-6.01,-3.92l2.52,0l0,15.59c0,0.71 0.1,1.25 0.3,1.6c0.22,0.35 0.49,0.58 0.81,0.7c0.34,0.12 0.69,0.17 1.06,0.17c0.27,0 0.5,-0.01 0.68,-0.04c0.18,-0.03 0.32,-0.06 0.43,-0.08l0.51,2.25c-0.17,0.07 -0.41,0.13 -0.72,0.2c-0.3,0.07 -0.69,0.1 -1.16,0.1c-0.71,0 -1.4,-0.15 -2.09,-0.46c-0.67,-0.3 -1.23,-0.77 -1.68,-1.39c-0.44,-0.63 -0.66,-1.41 -0.66,-2.37l0,-16.27zm11.96,-1.54l0,7.5l-2.34,0l0,-7.5l2.34,0zm16.07,9.12l-2.26,0.64c-0.14,-0.38 -0.35,-0.74 -0.62,-1.1c-0.28,-0.36 -0.64,-0.66 -1.11,-0.89c-0.47,-0.24 -1.07,-0.35 -1.8,-0.35c-1.01,0 -1.84,0.23 -2.51,0.69c-0.66,0.45 -0.99,1.03 -0.99,1.74c0,0.62 0.23,1.11 0.68,1.48c0.46,0.36 1.17,0.66 2.14,0.9l2.42,0.6c1.47,0.35 2.56,0.9 3.27,1.63c0.72,0.72 1.08,1.66 1.08,2.8c0,0.94 -0.27,1.78 -0.81,2.52c-0.53,0.73 -1.28,1.32 -2.24,1.74c-0.96,0.43 -2.07,0.64 -3.34,0.64c-1.67,0 -3.05,-0.36 -4.15,-1.09c-1.09,-0.72 -1.78,-1.78 -2.07,-3.17l2.38,-0.6c0.23,0.88 0.66,1.54 1.29,1.98c0.64,0.45 1.48,0.67 2.51,0.67c1.17,0 2.1,-0.25 2.79,-0.75c0.69,-0.5 1.04,-1.11 1.04,-1.81c0,-0.57 -0.2,-1.05 -0.59,-1.43c-0.4,-0.39 -1.01,-0.68 -1.84,-0.87l-2.73,-0.64c-1.49,-0.36 -2.59,-0.91 -3.3,-1.65c-0.69,-0.76 -1.04,-1.7 -1.04,-2.83c0,-0.92 0.26,-1.74 0.78,-2.45c0.52,-0.71 1.23,-1.26 2.14,-1.67c0.91,-0.4 1.94,-0.61 3.09,-0.61c1.62,0 2.89,0.36 3.81,1.07c0.93,0.71 1.59,1.65 1.98,2.81zm13.76,12.7l-2.77,0l8.01,-21.82l2.73,0l8.01,21.82l-2.77,0l-6.52,-18.37l-0.17,0l-6.52,18.37zm1.02,-8.52l11.17,0l0,2.34l-11.17,0l0,-2.34zm20.53,-13.3l0,21.82l-2.51,0l0,-21.82l2.51,0zm7.12,0l0,21.82l-2.51,0l0,-21.82l2.51,0zm13.04,21.82l0,-16.36l2.52,0l0,16.36l-2.52,0zm1.28,-19.09c-0.49,0 -0.91,-0.17 -1.27,-0.5c-0.34,-0.34 -0.52,-0.74 -0.52,-1.2c0,-0.47 0.18,-0.87 0.52,-1.21c0.36,-0.33 0.78,-0.5 1.27,-0.5c0.49,0 0.91,0.17 1.26,0.5c0.35,0.34 0.53,0.74 0.53,1.21c0,0.46 -0.18,0.86 -0.53,1.2c-0.35,0.33 -0.77,0.5 -1.26,0.5zm8.36,9.25l0,9.84l-2.52,0l0,-16.36l2.43,0l0,2.55l0.21,0c0.39,-0.83 0.97,-1.5 1.75,-2c0.78,-0.51 1.79,-0.77 3.03,-0.77c1.1,0 2.07,0.23 2.9,0.68c0.84,0.45 1.48,1.13 1.94,2.05c0.46,0.91 0.7,2.06 0.7,3.45l0,10.4l-2.52,0l0,-10.23c0,-1.28 -0.33,-2.28 -1,-3c-0.67,-0.73 -1.58,-1.09 -2.75,-1.09c-0.8,0 -1.52,0.18 -2.15,0.52c-0.63,0.35 -1.12,0.86 -1.48,1.53c-0.36,0.67 -0.54,1.48 -0.54,2.43zm35.74,-6.52c-0.13,-1.08 -0.65,-1.92 -1.56,-2.52c-0.9,-0.59 -2.02,-0.89 -3.34,-0.89c-0.97,0 -1.81,0.15 -2.54,0.47c-0.71,0.31 -1.27,0.74 -1.68,1.29c-0.4,0.54 -0.6,1.16 -0.6,1.86c0,0.58 0.14,1.08 0.42,1.5c0.28,0.41 0.65,0.76 1.09,1.03c0.44,0.28 0.9,0.5 1.38,0.68c0.48,0.17 0.93,0.31 1.33,0.41l2.22,0.6c0.57,0.15 1.2,0.35 1.89,0.62c0.71,0.26 1.38,0.62 2.02,1.07c0.65,0.45 1.18,1.02 1.6,1.73c0.42,0.7 0.62,1.56 0.62,2.59c0,1.18 -0.3,2.24 -0.92,3.19c-0.61,0.95 -1.51,1.71 -2.69,2.27c-1.17,0.56 -2.59,0.84 -4.27,0.84c-1.56,0 -2.91,-0.25 -4.06,-0.75c-1.13,-0.51 -2.03,-1.21 -2.68,-2.11c-0.65,-0.9 -1.01,-1.95 -1.1,-3.14l2.73,0c0.07,0.82 0.35,1.5 0.83,2.04c0.49,0.53 1.11,0.93 1.85,1.19c0.76,0.26 1.56,0.39 2.43,0.39c1.01,0 1.92,-0.17 2.72,-0.49c0.8,-0.34 1.44,-0.8 1.9,-1.39c0.47,-0.59 0.71,-1.29 0.71,-2.09c0,-0.72 -0.2,-1.31 -0.61,-1.76c-0.4,-0.46 -0.94,-0.83 -1.6,-1.11c-0.66,-0.29 -1.37,-0.53 -2.14,-0.75l-2.68,-0.76c-1.71,-0.49 -3.06,-1.19 -4.05,-2.1c-1,-0.91 -1.49,-2.1 -1.49,-3.57c0,-1.22 0.33,-2.29 0.99,-3.2c0.67,-0.91 1.56,-1.62 2.68,-2.13c1.13,-0.51 2.39,-0.77 3.79,-0.77c1.4,0 2.65,0.26 3.75,0.76c1.09,0.5 1.96,1.18 2.59,2.05c0.65,0.86 0.99,1.85 1.03,2.95l-2.56,0zm8.48,22.5c-0.43,0 -0.81,-0.04 -1.14,-0.11c-0.34,-0.06 -0.57,-0.13 -0.69,-0.19l0.63,-2.22c0.62,0.16 1.16,0.22 1.62,0.17c0.47,-0.04 0.89,-0.25 1.25,-0.63c0.37,-0.37 0.71,-0.97 1.01,-1.8l0.47,-1.27l-6.05,-16.45l2.73,0l4.51,13.04l0.17,0l4.52,-13.04l2.73,0l-6.95,18.75c-0.31,0.84 -0.7,1.54 -1.16,2.1c-0.46,0.56 -1,0.97 -1.61,1.24c-0.6,0.27 -1.28,0.41 -2.04,0.41zm17.59,-15.98l0,9.84l-2.51,0l0,-16.36l2.43,0l0,2.55l0.21,0c0.38,-0.83 0.97,-1.5 1.75,-2c0.78,-0.51 1.79,-0.77 3.02,-0.77c1.11,0 2.08,0.23 2.91,0.68c0.83,0.45 1.48,1.13 1.94,2.05c0.46,0.91 0.69,2.06 0.69,3.45l0,10.4l-2.51,0l0,-10.23c0,-1.28 -0.34,-2.28 -1,-3c-0.67,-0.73 -1.59,-1.09 -2.75,-1.09c-0.81,0 -1.52,0.18 -2.15,0.52c-0.63,0.35 -1.12,0.86 -1.49,1.53c-0.36,0.67 -0.54,1.48 -0.54,2.43zm21.68,10.18c-1.53,0 -2.85,-0.36 -3.96,-1.09c-1.11,-0.72 -1.96,-1.72 -2.56,-2.99c-0.59,-1.27 -0.89,-2.72 -0.89,-4.36c0,-1.66 0.31,-3.12 0.92,-4.4c0.61,-1.28 1.47,-2.27 2.57,-2.99c1.11,-0.72 2.4,-1.09 3.88,-1.09c1.15,0 2.19,0.22 3.11,0.64c0.93,0.43 1.68,1.03 2.27,1.79c0.59,0.77 0.96,1.66 1.1,2.69l-2.51,0c-0.2,-0.75 -0.62,-1.41 -1.28,-1.98c-0.66,-0.59 -1.54,-0.88 -2.65,-0.88c-0.98,0 -1.83,0.26 -2.57,0.77c-0.74,0.5 -1.31,1.22 -1.72,2.14c-0.4,0.92 -0.61,1.99 -0.61,3.23c0,1.26 0.2,2.36 0.6,3.3c0.4,0.94 0.97,1.67 1.71,2.19c0.73,0.51 1.6,0.77 2.59,0.77c0.66,0 1.25,-0.11 1.78,-0.34c0.54,-0.23 0.99,-0.55 1.36,-0.98c0.37,-0.42 0.63,-0.94 0.79,-1.53l2.51,0c-0.14,0.96 -0.5,1.83 -1.06,2.61c-0.55,0.76 -1.29,1.38 -2.2,1.83c-0.91,0.45 -1.97,0.67 -3.18,0.67zm11.95,-0.17c-0.53,0 -0.98,-0.19 -1.36,-0.56c-0.37,-0.38 -0.56,-0.83 -0.56,-1.36c0,-0.52 0.19,-0.97 0.56,-1.35c0.38,-0.38 0.83,-0.56 1.36,-0.56c0.52,0 0.97,0.18 1.35,0.56c0.38,0.38 0.56,0.83 0.56,1.35c0,0.35 -0.08,0.67 -0.26,0.96c-0.17,0.29 -0.4,0.53 -0.69,0.7c-0.29,0.18 -0.61,0.26 -0.96,0.26z" fill="white" id="svg_3"/>
  <path clip-rule="evenodd" d="m247.84,80.22c11.78,0 21.34,-9.36 21.34,-20.85c0,-11.5 -9.58,-20.84 -21.34,-20.84c-11.78,0 -21.34,9.36 -21.34,20.84c0,4.75 1.64,9.14 4.39,12.63l-40.62,34.05c-1.05,0.87 -1.15,2.39 -0.26,3.41c0.49,0.56 1.2,0.83 1.88,0.83c0.57,0 1.15,-0.18 1.61,-0.58l40.82,-34.26c3.66,2.98 8.39,4.77 13.52,4.77zm-115.66,79.99l-29.92,30.54c-3.58,-2.64 -8.03,-4.22 -12.87,-4.22c-11.78,0 -21.34,9.35 -21.34,20.84c0,11.5 9.58,20.84 21.34,20.84c11.78,0 21.34,-9.36 21.34,-20.84c0,-5.06 -1.85,-9.68 -4.92,-13.3l29.91,-30.55c0.94,-0.96 0.91,-2.5 -0.09,-3.41c-0.96,-0.9 -2.51,-0.87 -3.45,0.1zm5.84,-51.44c0.91,-0.97 0.87,-2.51 -0.13,-3.41l-29.88,-26.95c2.57,-3.46 4.11,-7.7 4.11,-12.28c0,-11.5 -9.59,-20.84 -21.34,-20.84c-11.78,0 -21.35,9.36 -21.35,20.84c0,11.51 9.59,20.85 21.35,20.85c5.3,0 10.13,-1.9 13.88,-5.04l29.87,26.98c0.46,0.44 1.08,0.64 1.68,0.64c0.66,0 1.32,-0.27 1.81,-0.79zm90.23,53.07c0,11.5 9.58,20.84 21.34,20.84c11.78,0 21.34,-9.36 21.34,-20.84c0,-11.51 -9.58,-20.85 -21.34,-20.85c-8.37,0 -15.64,4.75 -19.13,11.61l-21.06,-7.36c-1.28,-0.46 -2.71,0.2 -3.16,1.45c-0.47,1.25 0.22,2.64 1.49,3.08l21.07,7.36c-0.36,1.52 -0.55,3.1 -0.55,4.71zm-34.7,32.8c1.92,-0.54 3.94,-0.86 6.03,-0.86c11.77,0 21.34,9.36 21.34,20.87c0,11.5 -9.59,20.84 -21.34,20.84c-11.78,0 -21.35,-9.36 -21.35,-20.84c0,-7.74 4.35,-14.5 10.78,-18.1l-14.29,-32.8c-0.53,-1.23 0.04,-2.64 1.3,-3.16c1.25,-0.52 2.7,0.04 3.23,1.27l14.3,32.78zm-25.37,-81l-9.44,0c-14.59,0 -26.79,10.67 -28.43,24.8c-0.34,3.01 0.53,5.69 2.6,7.96c2.06,2.27 4.7,3.41 7.81,3.41l45.46,0c3.11,0 5.73,-1.14 7.82,-3.41c2.06,-2.27 2.93,-4.95 2.59,-7.96c-1.62,-14.13 -13.84,-24.8 -28.41,-24.8zm12.76,-23.77c0,-9.4 -7.84,-17.06 -17.47,-17.06c-9.63,0 -17.46,7.66 -17.46,17.06c0,9.4 7.83,17.05 17.46,17.05c9.63,0 17.47,-7.65 17.47,-17.05z" fill="#39E079" fill-rule="evenodd" id="svg_4"/>
  <rect fill="#39E079" height="0" id="svg_6" transform="matrix(1 0 0 1 0 0)" width="0" x="774.6" y="131.8"/>
 </g>
</svg>